<svg width="15" height="14" viewBox="0 0 15 14" fill="none" xmlns="http://www.w3.org/2000/svg">
<path fill-rule="evenodd" clip-rule="evenodd" d="M14.6218 7.15363C14.6218 6.675 14.5763 6.21477 14.4919 5.77295H7.76465V8.38398H11.6088C11.4432 9.22773 10.94 9.94261 10.1835 10.4213V12.1149H12.4919C13.8426 10.9398 14.6218 9.20932 14.6218 7.15363Z" fill="#4285F4"/>
<path fill-rule="evenodd" clip-rule="evenodd" d="M7.76435 13.7502C9.69292 13.7502 11.3098 13.1458 12.4916 12.1149L10.1832 10.4212C9.54357 10.8262 8.72539 11.0656 7.76435 11.0656C5.90396 11.0656 4.32928 9.87817 3.76759 8.28271H1.38123V10.0316C2.55655 12.2376 4.97214 13.7502 7.76435 13.7502Z" fill="#34A853"/>
<path fill-rule="evenodd" clip-rule="evenodd" d="M3.76793 8.28262C3.62508 7.87762 3.54391 7.445 3.54391 7.00012C3.54391 6.55523 3.62508 6.12262 3.76793 5.71762V3.96875H1.38157C0.8978 4.88 0.621826 5.91091 0.621826 7.00012C0.621826 8.08932 0.8978 9.12023 1.38157 10.0315L3.76793 8.28262Z" fill="#FBBC05"/>
<path fill-rule="evenodd" clip-rule="evenodd" d="M7.76435 2.93466C8.81305 2.93466 9.75461 3.27523 10.4949 3.9441L12.5436 2.00807C11.3066 0.918864 9.68968 0.25 7.76435 0.25C4.97214 0.25 2.55655 1.76262 1.38123 3.96864L3.76759 5.71751C4.32928 4.12205 5.90396 2.93466 7.76435 2.93466Z" fill="#EA4335"/>
</svg>
